<?xml version="1.0" standalone="no"?><!DOCTYPE svg PUBLIC "-//W3C//DTD SVG 1.1//EN" "http://www.w3.org/Graphics/SVG/1.1/DTD/svg11.dtd"><svg t="1526806883534" class="icon" style="" viewBox="0 0 1024 1024" version="1.1" xmlns="http://www.w3.org/2000/svg" p-id="3781" xmlns:xlink="http://www.w3.org/1999/xlink" width="200" height="200"><defs><style type="text/css"></style></defs><path d="M881.789 810.489c0 38.721-31.424 70.145-70.145 70.145h-599.171c-38.721 0-70.204-31.424-70.204-70.145v-287.758h-71.616v287.758c0 78.089 63.613 141.701 141.819 141.701h599.171c78.089 0 141.701-63.613 141.701-141.701v-287.758h-71.557v287.758zM811.645 69.498h-599.171c-78.206 0-141.819 63.613-141.819 141.819v287.64h71.557v-287.64c0-38.721 31.541-70.262 70.204-70.262h599.171c38.721 0 70.145 31.541 70.145 70.262v287.64h71.616v-287.64c0-78.206-63.613-141.819-141.701-141.819zM629.575 250.686c5.531 22.715 6.12 24.539 5.649 47.783-0.294 8.945-5.414 50.372-4.001 63.083 1.236 10.475 3.707 11.299 8.062 19.949 7.179 14.947 4.766 35.72 1.942 50.843-1.471 8.297-4.649 20.066-9.415 26.893-5.59 7.474-16.3 7.532-20.949 16.241-6.767 12.534-2.942 30.129-7.238 43.546-4.825 15.418-17.242 16.418-18.301 36.544 6.12 0.765 12.181 1.648 18.301 2.648 6.061 12.829 17.242 39.074 28.658 47.018 9.533 2.53 19.066 5.179 28.658 7.826 33.542 13.594 70.674 30.188 104.216 44.311 30.6 12.887 67.261 17.536 78.206 49.549 0 21.714 2.060 73.205 1.471 101.745h-665.903c-0.53-28.481 1.53-80.031 1.53-101.745 11.004-32.012 47.665-36.661 78.206-49.549 33.601-14.123 70.851-30.659 104.275-44.311 9.592-2.766 19.184-5.296 28.776-7.826 11.416-7.944 22.538-34.072 28.658-47.018l13.535-3.354c-2.942-17.124-13.594-18.419-18.007-30.6-1.824-18.184-3.59-36.485-5.179-54.668 0 0.883-12.593-2.295-14.182-3.354-17.771-11.063-18.125-56.139-19.831-74.911-0.765-8.533 11.181-15.594 7.826-31.306-19.419-91.918 8.356-134.993 52.314-149.293 30.541-12.358 87.504-35.19 140.642-2.589l13.181 12.24 21.361 3.649c10.71 6.179 17.536 26.657 17.536 26.657z" p-id="3782"></path></svg>